<svg width="36" height="36" viewBox="0 0 36 36" fill="none" xmlns="http://www.w3.org/2000/svg">
<path d="M17.7773 35.957C8.05664 35.957 0.146484 28.0469 0.146484 18.3262C0.146484 8.60547 8.05664 0.695312 17.7773 0.695312C27.498 0.695312 35.4082 8.60547 35.4082 18.3262C35.4082 28.0469 27.498 35.957 17.7773 35.957ZM9.74414 13.9492H25.8105C26.8125 13.9492 27.3398 13.334 27.3398 12.3672V11.3477C27.3398 10.3457 26.8125 9.73047 25.8105 9.73047H9.74414C8.79492 9.73047 8.21484 10.3457 8.21484 11.3477V12.3672C8.21484 13.334 8.74219 13.9492 9.74414 13.9492ZM12.3984 27.291H23.1562C24.9668 27.291 25.9336 26.3418 25.9336 24.5312V15.2148H9.62109V24.5312C9.62109 26.3594 10.5879 27.291 12.3984 27.291ZM14.5254 18.5547C14.1562 18.5547 13.8926 18.3086 13.8926 17.9219V17.6406C13.8926 17.2539 14.1562 17.0078 14.5254 17.0078H21.0469C21.416 17.0078 21.6621 17.2539 21.6621 17.6406V17.9219C21.6621 18.3086 21.416 18.5547 21.0469 18.5547H14.5254Z" fill="#4D716A"/>
</svg>
