<svg width="24" height="25" viewBox="0 0 24 25" fill="none" xmlns="http://www.w3.org/2000/svg">
<path d="M12 24.4922C5.41406 24.4922 0.046875 19.125 0.046875 12.5391C0.046875 5.94141 5.41406 0.585938 12 0.585938C18.5977 0.585938 23.9531 5.94141 23.9531 12.5391C23.9531 19.125 18.5977 24.4922 12 24.4922ZM8.42578 18.9492C8.74219 18.9492 8.91797 18.7617 9.48047 18.2109L11.9414 15.7969C11.9766 15.7617 12.0234 15.7617 12.0586 15.7969L14.5312 18.2109C15.082 18.7617 15.2578 18.9492 15.5742 18.9492C15.9727 18.9492 16.2305 18.6562 16.2305 18.1641V7.99219C16.2305 6.82031 15.6211 6.19922 14.4492 6.19922H9.55078C8.37891 6.19922 7.76953 6.82031 7.76953 7.99219V18.1641C7.76953 18.6562 8.02734 18.9492 8.42578 18.9492Z" fill="#1B1B1B"/>
</svg>
