<svg width="485" height="151" viewBox="0 0 485 151" fill="none" xmlns="http://www.w3.org/2000/svg">
<path d="M411.974 36.3612H430.83C437.582 56.4003 444.324 76.4147 451.161 96.7112C451.423 96.0677 451.596 95.6964 451.73 95.3053C454.834 86.2065 457.992 77.1226 461.007 67.9941C463.042 61.8309 464.784 55.5736 465.715 49.1282C466.304 45.0739 466.413 41.0096 465.685 36.9503C465.656 36.7968 465.656 36.6384 465.641 36.4899C466.512 36.2474 482.838 36.183 484.383 36.4355C484.502 37.1582 484.66 37.9255 484.754 38.6978C485.2 42.4205 485.007 46.1283 484.442 49.8213C483.274 57.4498 480.903 64.7516 478.269 71.9643C472.645 87.35 466.933 102.706 461.255 118.072C461.076 118.547 460.883 119.023 460.685 119.532H441.696C434.899 99.1418 428.102 78.7463 421.3 58.3557C421.211 58.3508 421.127 58.3409 421.038 58.3359C418.731 65.0882 416.513 71.8702 414.246 78.6374C411.959 85.4689 409.687 92.3004 407.409 99.1319C405.147 105.924 402.89 112.711 400.618 119.532H381.593C371.499 91.8549 361.406 64.1724 351.272 36.3761H372.039C378.504 56.3558 384.974 76.3701 391.449 96.3795C392.905 93.1667 393.925 89.8401 395.048 86.5481C396.187 83.2165 397.301 79.875 398.429 76.5384C399.568 73.1672 400.717 69.796 401.85 66.4199C402.974 63.0833 404.088 59.7418 405.207 56.4053C406.325 53.0687 407.449 49.7272 408.578 46.3907C409.701 43.0591 410.83 39.7324 411.974 36.3563V36.3612Z" fill="#1B1B1B"/>
<path d="M251.661 119.577C249.265 119.577 246.933 119.617 244.602 119.567C237.018 119.409 229.79 117.716 222.959 114.384C220.102 112.993 217.409 111.34 214.865 109.444C214.419 109.112 213.979 108.78 213.419 108.359C207.157 112.929 200.499 116.839 193.024 119.587C190.633 114.745 188.365 109.854 185.969 104.894C191.583 102.325 196.781 99.2656 201.568 95.4389C201.385 95.1271 201.246 94.8498 201.078 94.5924C195.375 85.9491 191.791 76.4542 189.712 66.3555C188.489 60.4101 187.856 54.4003 187.667 48.3361C187.41 40.1829 187.984 32.1187 190.202 24.2328C191.464 19.7477 193.286 15.5003 195.994 11.6836C200.365 5.51542 206.192 1.58482 213.726 0.416536C220.637 -0.652744 227.231 0.258125 233.236 4.06496C237.963 7.05994 241.24 11.3074 243.597 16.3221C245.567 20.5101 246.715 24.9456 247.379 29.5099C247.874 32.9207 248.102 36.3612 248.067 39.8067C247.983 48.2124 246.715 56.4349 244.191 64.4546C240.74 75.4246 235.344 85.3402 228.033 94.2162C227.805 94.4934 227.587 94.7706 227.369 95.0528C227.345 95.0825 227.34 95.1271 227.29 95.2409C227.498 95.4191 227.711 95.632 227.958 95.8053C233.731 99.8646 240.146 101.924 247.206 101.954C248.666 101.959 250.126 101.954 251.557 101.954C251.834 102.869 251.918 117.77 251.661 119.577ZM215.172 81.2809C215.459 80.9343 215.647 80.7363 215.805 80.5185C218.152 77.2216 220.231 73.7662 221.988 70.1227C227.077 59.6131 229.647 48.549 229.191 36.8364C229.053 33.2227 228.607 29.6633 227.473 26.2129C226.79 24.1288 225.825 22.1883 224.355 20.5299C222.023 17.9013 218.444 16.9805 215.286 18.2131C213.201 19.025 211.736 20.5398 210.578 22.3912C209.345 24.3565 208.573 26.5099 207.994 28.7426C206.83 33.2128 206.489 37.7919 206.419 42.3858C206.34 47.6579 206.692 52.9053 207.518 58.1131C208.573 64.7466 210.33 71.1772 213.167 77.2859C213.776 78.6027 214.464 79.8799 215.172 81.2858V81.2809Z" fill="#1B1B1B"/>
<path d="M303.278 34.2821C314.352 34.4355 324.129 37.4305 332.535 44.2967C340.614 50.8955 345.549 59.4151 347.411 69.6574C349.079 78.8156 348.178 87.751 344.297 96.2459C339.154 107.508 330.565 115.047 318.902 119.072C311.545 121.612 303.976 122.121 296.288 121.008C287.561 119.74 279.799 116.315 273.2 110.439C265.972 103.998 261.507 95.9538 259.774 86.4392C258.027 76.8652 259.027 67.5832 263.215 58.7468C267.175 50.3906 273.309 44.0541 281.452 39.6829C287.516 36.4305 294.016 34.7474 300.877 34.391C301.788 34.3464 302.694 34.3068 303.283 34.2771L303.278 34.2821ZM303.585 51.9252C302.288 52.039 300.981 52.0836 299.689 52.2717C292.833 53.2618 287.18 56.4201 283.016 61.9794C278.071 68.5881 276.724 76.0483 278.477 84.0333C280.101 91.4291 284.284 97.0478 290.922 100.721C295.922 103.488 301.323 104.379 306.986 103.671C312.976 102.919 318.149 100.449 322.248 96.0033C328.09 89.6767 330.099 82.0878 328.857 73.6969C326.847 60.1378 315.733 51.8707 303.58 51.9252H303.585Z" fill="#1B1B1B"/>
<path d="M135.045 52.9598H121.07V36.2671H135.045C135.045 35.5592 135.045 35.0097 135.045 34.4602C135.045 32.0445 134.995 29.6287 135.055 27.2129C135.193 21.9061 136.253 16.8419 139.159 12.2974C142.198 7.55002 146.584 4.59959 151.856 2.85706C155.728 1.57987 159.722 1.07493 163.772 0.995722C166.901 0.931368 170.029 0.980871 173.158 0.985822C173.351 0.985822 173.549 1.02047 173.732 1.03533C173.975 1.89174 174.064 15.7082 173.831 17.7329C173.514 17.7626 173.178 17.8121 172.836 17.8171C170.777 17.827 168.717 17.822 166.658 17.8171C164.826 17.8171 163.014 18.025 161.277 18.6042C156.881 20.0695 154.351 23.1684 153.569 27.6931C153.089 30.4801 153.416 33.2969 153.332 36.2374C155.663 36.3414 157.911 36.2721 160.153 36.2869C162.45 36.2968 164.747 36.2869 167.044 36.2869C169.341 36.2869 171.539 36.2869 173.856 36.2869V52.9499C170.445 52.9548 167.059 52.9499 163.668 52.9499C160.272 52.9499 156.876 52.9499 153.336 52.9499V54.5835C153.336 77.2364 153.336 99.8893 153.336 122.542C153.336 126.121 153.035 129.661 152 133.101C149.604 141.086 144.287 146.185 136.451 148.764C133.505 149.735 130.471 150.309 127.372 150.447C124.213 150.586 121.055 150.616 117.936 150.695C117.634 149.705 117.526 136.418 117.773 133.839C118.204 133.824 118.659 133.789 119.12 133.789C121.179 133.789 123.233 133.849 125.268 133.423C131.144 132.19 134.629 128.166 134.985 122.161C135.025 121.527 135.03 120.894 135.03 120.26C135.03 98.3993 135.03 76.5384 135.03 54.6776V52.9499L135.045 52.9598Z" fill="#1B1B1B"/>
<path d="M86.858 62.0685H67.5911C67.4871 61.9397 67.4178 61.8853 67.3931 61.816C64.6654 54.2716 59.2943 49.544 51.6658 47.4401C41.3294 44.5887 29.894 48.0391 23.5031 57.2864C19.8497 62.5734 18.4339 68.4693 18.9784 74.8553C19.4735 80.6472 21.5625 85.7659 25.4733 90.0826C29.7752 94.83 35.1711 97.4735 41.5175 98.221C46.3887 98.7953 51.0767 98.1319 55.527 96.0577C61.0913 93.4687 65.0466 89.3401 67.2198 83.558C67.3139 83.3056 67.4327 83.058 67.5466 82.8006H86.9322C86.7441 83.7214 86.6055 84.5728 86.3976 85.3996C83.5858 96.4191 77.1651 104.696 67.3238 110.325C61.814 113.473 55.8488 115.226 49.5371 115.805C40.5522 116.631 31.8841 115.424 23.7952 111.325C11.0479 104.864 3.33032 94.5082 0.775926 80.4541C-0.912151 71.1722 0.127427 62.1279 4.15703 53.5538C9.23116 42.762 17.5131 35.3463 28.7505 31.495C40.9878 27.297 53.1806 27.7228 64.913 33.3414C76.5513 38.9156 83.8283 48.153 86.7094 60.7814C86.7639 61.014 86.7887 61.2516 86.8184 61.4843C86.8382 61.6378 86.8382 61.7962 86.853 62.0635L86.858 62.0685Z" fill="#1B1B1B"/>
<path d="M93.8732 99.693C93.5332 99.3719 93.2783 98.9753 93.1083 98.5031C92.9477 98.0214 92.9241 97.4973 93.0374 96.9306C93.1508 96.3545 93.453 95.769 93.9441 95.174C94.1235 94.9663 94.3265 94.7396 94.5532 94.494C94.7799 94.2391 95.0396 93.9652 95.3323 93.6724C95.6251 93.3796 95.9415 93.068 96.2815 92.7375C96.6215 92.3975 96.9898 92.0339 97.3864 91.6467C99.8324 89.2195 101.972 87.2552 103.804 85.7536C105.636 84.252 107.232 83.1706 108.592 82.5095C109.961 81.8484 111.151 81.5698 112.162 81.6737C113.182 81.7682 114.088 82.2073 114.882 82.9912C115.533 83.6145 115.873 84.3464 115.902 85.1869C115.93 86.0274 115.713 86.9813 115.25 88.0485C114.797 89.1062 114.15 90.2773 113.309 91.5617C112.469 92.8461 111.505 94.2485 110.419 95.769C109.777 96.6662 109.196 97.4878 108.677 98.2339C108.157 98.9705 107.699 99.6316 107.303 100.217C106.906 100.803 106.58 101.303 106.325 101.719C106.07 102.134 105.886 102.46 105.773 102.696C105.659 102.932 105.622 103.074 105.659 103.121C105.688 103.168 105.825 103.126 106.07 102.994C106.316 102.861 106.656 102.644 107.09 102.342C107.525 102.03 108.049 101.634 108.663 101.152C109.277 100.661 109.966 100.08 110.731 99.4097C111.798 98.4653 112.771 97.6342 113.649 96.9165C114.537 96.1893 115.349 95.6273 116.086 95.2307C116.832 94.834 117.521 94.6499 118.154 94.6782C118.787 94.6971 119.391 94.9851 119.967 95.5423C120.553 96.109 120.841 96.737 120.831 97.4264C120.831 98.1158 120.638 98.8808 120.251 99.7213C119.863 100.562 119.391 101.487 118.834 102.498C118.475 103.14 118.159 103.711 117.885 104.212C117.611 104.703 117.398 105.104 117.247 105.416C117.106 105.718 117.049 105.884 117.077 105.912C117.106 105.94 117.247 105.869 117.502 105.699C117.767 105.539 118.102 105.298 118.508 104.977C118.924 104.656 119.367 104.273 119.84 103.83C120.123 103.575 120.435 103.438 120.775 103.419C121.115 103.39 121.412 103.504 121.667 103.759C121.95 104.042 122.064 104.363 122.007 104.722C121.96 105.081 121.776 105.426 121.455 105.756C120.132 107.069 118.905 107.872 117.771 108.164C116.638 108.467 115.746 108.287 115.094 107.626C114.631 107.173 114.372 106.672 114.315 106.124C114.268 105.577 114.348 105.005 114.556 104.41C114.773 103.815 115.047 103.22 115.377 102.625C115.717 102.021 116.053 101.44 116.383 100.883C116.638 100.439 116.879 100.024 117.106 99.6363C117.342 99.2491 117.521 98.928 117.644 98.673C117.776 98.4181 117.823 98.2717 117.786 98.2339C117.701 98.1395 117.46 98.2386 117.063 98.5314C116.666 98.8147 116.133 99.2491 115.462 99.8347C114.801 100.411 114.022 101.091 113.125 101.875C111.349 103.442 109.796 104.665 108.464 105.544C107.133 106.422 105.981 106.918 105.008 107.031C104.035 107.144 103.19 106.842 102.472 106.124C101.764 105.416 101.424 104.613 101.452 103.716C101.49 102.81 101.787 101.813 102.345 100.727C102.911 99.6411 103.638 98.4747 104.526 97.2281C105.423 95.972 106.382 94.6357 107.402 93.2191C107.987 92.4164 108.545 91.6372 109.073 90.8817C109.612 90.1167 110.079 89.4273 110.476 88.8134C110.882 88.1996 111.184 87.699 111.383 87.3118C111.581 86.9152 111.638 86.6791 111.553 86.6035C111.449 86.4996 111.146 86.6555 110.646 87.071C110.155 87.4865 109.465 88.1335 108.578 89.0118C107.699 89.8901 106.627 90.9714 105.362 92.2558C104.106 93.5402 102.666 95.004 101.041 96.6473C100.73 96.9684 100.427 97.2753 100.135 97.5681C99.8513 97.8609 99.5869 98.1347 99.3413 98.3897C99.0958 98.6353 98.8691 98.8572 98.6614 99.0555C98.4631 99.2539 98.2931 99.4191 98.1514 99.5513C97.6792 99.9858 97.1739 100.264 96.6356 100.387C96.1068 100.5 95.5968 100.496 95.1057 100.373C94.624 100.241 94.2132 100.014 93.8732 99.693Z" fill="#FF8698"/>
</svg>
