<svg width="101" height="94" viewBox="0 0 101 94" fill="none" xmlns="http://www.w3.org/2000/svg">
<path d="M3.54883 62.834C2.37695 61.7272 1.49805 60.36 0.912109 58.7324C0.358724 57.0723 0.277344 55.2656 0.667969 53.3125C1.05859 51.3268 2.10026 49.3086 3.79297 47.2578C4.41146 46.5417 5.11133 45.7604 5.89258 44.9141C6.67383 44.0352 7.56901 43.0911 8.57812 42.082C9.58724 41.0729 10.6777 39.9987 11.8496 38.8594C13.0215 37.6875 14.291 36.4342 15.6582 35.0996C24.0892 26.7337 31.4622 19.9629 37.7773 14.7871C44.0924 9.61133 49.5938 5.88411 54.2812 3.60547C59.0013 1.32682 63.1029 0.366536 66.5859 0.724609C70.1016 1.05013 73.2266 2.5638 75.9609 5.26562C78.207 7.41406 79.3789 9.93685 79.4766 12.834C79.5742 15.7311 78.8255 19.0189 77.2305 22.6973C75.668 26.3431 73.4382 30.3796 70.541 34.8066C67.6439 39.2337 64.3236 44.0677 60.5801 49.3086C58.3665 52.401 56.3646 55.2331 54.5742 57.8047C52.7839 60.3438 51.2051 62.6224 49.8379 64.6406C48.4707 66.6589 47.3477 68.3841 46.4688 69.8164C45.5898 71.2487 44.9551 72.3717 44.5645 73.1855C44.1738 73.9993 44.0436 74.4876 44.1738 74.6504C44.2715 74.8132 44.7435 74.6667 45.5898 74.2109C46.4362 73.7552 47.6081 73.0065 49.1055 71.9648C50.6029 70.8906 52.4095 69.5234 54.5254 67.8633C56.6413 66.1706 59.0176 64.1686 61.6543 61.8574C65.3327 58.6022 68.6855 55.7376 71.7129 53.2637C74.7728 50.7572 77.5723 48.8203 80.1113 47.4531C82.6829 46.0859 85.0592 45.4512 87.2402 45.5488C89.4212 45.6139 91.5046 46.6068 93.4902 48.5273C95.5085 50.4805 96.5013 52.6452 96.4688 55.0215C96.4688 57.3978 95.8014 60.0345 94.4668 62.9316C93.1322 65.8288 91.5046 69.0189 89.584 72.502C88.347 74.7155 87.2565 76.6849 86.3125 78.4102C85.3685 80.1029 84.6361 81.4863 84.1152 82.5605C83.627 83.6022 83.4316 84.1719 83.5293 84.2695C83.627 84.3672 84.1152 84.123 84.9941 83.5371C85.9056 82.9837 87.0612 82.1536 88.4609 81.0469C89.8932 79.9401 91.4232 78.6217 93.0508 77.0918C94.0273 76.2129 95.1016 75.7409 96.2734 75.6758C97.4453 75.5781 98.4707 75.9688 99.3496 76.8477C100.326 77.8242 100.717 78.931 100.521 80.168C100.359 81.4049 99.724 82.5931 98.6172 83.7324C94.0599 88.2572 89.8281 91.0241 85.9219 92.0332C82.0156 93.0749 78.9395 92.4564 76.6934 90.1777C75.0983 88.6152 74.2031 86.89 74.0078 85.002C73.8451 83.1139 74.1217 81.1445 74.8379 79.0938C75.5866 77.043 76.5306 74.9922 77.6699 72.9414C78.8418 70.8581 79.9974 68.8561 81.1367 66.9355C82.0156 65.4056 82.8457 63.9733 83.627 62.6387C84.4408 61.304 85.0592 60.1973 85.4824 59.3184C85.9382 58.4395 86.1009 57.9349 85.9707 57.8047C85.6777 57.4792 84.8477 57.821 83.4805 58.8301C82.1133 59.8066 80.2741 61.304 77.9629 63.3223C75.6842 65.3079 72.9987 67.6517 69.9062 70.3535C63.7865 75.7572 58.4316 79.9727 53.8418 83C49.252 86.0273 45.2806 87.7363 41.9277 88.127C38.5749 88.5176 35.6615 87.4759 33.1875 85.002C30.7461 82.5605 29.5742 79.7936 29.6719 76.7012C29.8021 73.5762 30.8275 70.1419 32.748 66.3984C34.7012 62.6549 37.2077 58.6348 40.2676 54.3379C43.36 50.0085 46.6641 45.4023 50.1797 40.5195C52.1979 37.7526 54.1185 35.0671 55.9414 32.4629C57.7969 29.8262 59.4082 27.4499 60.7754 25.334C62.1751 23.2181 63.2168 21.4928 63.9004 20.1582C64.584 18.791 64.7793 17.9772 64.4863 17.7168C64.1283 17.3587 63.0866 17.8958 61.3613 19.3281C59.6686 20.7604 57.2923 22.9902 54.2324 26.0176C51.2051 29.0449 47.5104 32.7721 43.1484 37.1992C38.819 41.6263 33.8548 46.6719 28.2559 52.3359C27.1816 53.4427 26.14 54.5007 25.1309 55.5098C24.1543 56.5189 23.2428 57.4629 22.3965 58.3418C21.5501 59.1882 20.7689 59.9531 20.0527 60.6367C19.3691 61.3203 18.7832 61.89 18.2949 62.3457C16.6673 63.8431 14.9258 64.8034 13.0703 65.2266C11.2474 65.6172 9.48958 65.6009 7.79688 65.1777C6.13672 64.722 4.7207 63.9408 3.54883 62.834Z" fill="#DA7584"/>
</svg>
