<svg width="151" height="111" viewBox="0 0 151 111" fill="none" xmlns="http://www.w3.org/2000/svg">
<path d="M56.4168 82.0457C56.4168 82.0457 57.6929 95.5083 53.6095 104.639C53.5457 104.785 53.5138 104.932 53.5138 105.092C53.5393 106.272 53.367 111.587 48.3265 109.207C46.004 108.11 25.708 98.539 17.1263 92.2224C11.9454 88.4069 6.89852 84.3682 3.67641 78.9065C2.64917 77.1647 1.77505 75.3271 1.25186 73.5215C0.186329 69.8336 2.61088 66.3052 6.46465 66.0053C9.12528 65.7948 12.877 66.2159 18.1408 66.9241C30.5698 68.5958 37.5883 66.0436 37.5883 66.0436" stroke="#1B1B1B" stroke-width="1.1735" stroke-miterlimit="10" stroke-linecap="round"/>
<path d="M58.4458 79.1873C58.9371 79.9019 60.3472 82.3328 56.621 82.0776C56.4232 82.0648 56.2318 81.9946 56.0659 81.8862L35.9485 68.398C35.1573 67.8684 33.7664 66.6817 36.325 66.4456L37.7542 66.0883L58.1204 78.8746C58.248 78.9576 58.3565 79.0597 58.4458 79.1873Z" stroke="#1B1B1B" stroke-width="1.1926" stroke-miterlimit="10"/>
<path d="M53.5074 104.862C53.5074 104.862 51.4274 105.207 34.6979 97.314C17.7324 89.313 11.0522 84.4766 7.0325 76.5202C3.01284 68.5639 4.65899 66.3882 4.65899 66.3882" stroke="#1B1B1B" stroke-width="1.404" stroke-miterlimit="10"/>
<path d="M17.943 68.6022L18.0259 72.8898C18.0387 73.5661 18.6066 74.1531 19.2893 74.1914L19.8763 74.2297C20.559 74.268 21.1077 73.7512 21.0885 73.0748L20.9992 68.5703C20.9865 67.9067 20.4377 67.3325 19.7742 67.2942L19.3275 67.2687C18.5555 67.224 17.9302 67.8238 17.943 68.6022Z" stroke="#1B1B1B" stroke-width="0.965" stroke-miterlimit="10"/>
<path d="M22.4219 68.9977L22.658 74.4147C22.6899 75.1357 23.3216 75.7354 24.0681 75.7482L24.4063 75.7546C25.1528 75.7673 25.7398 75.1931 25.7079 74.4721L25.4654 68.8765C25.4335 68.181 24.872 67.626 24.1702 67.6132L23.781 67.6068C23.0153 67.5877 22.39 68.2257 22.4219 68.9977Z" stroke="#1B1B1B" stroke-width="1.0436" stroke-miterlimit="10"/>
<path d="M26.8628 69.0935L27.4817 76.4629C27.5519 77.2732 28.2857 77.9176 29.1279 77.8985C29.9701 77.8793 30.5954 77.2094 30.5316 76.3991L29.8935 68.8383C29.8361 68.1428 29.2172 67.5877 28.5217 67.6069L28.1964 67.6133C27.4116 67.6324 26.799 68.3087 26.8628 69.0935Z" stroke="#1B1B1B" stroke-width="1.1743" stroke-miterlimit="10"/>
<path d="M61.4957 75.3973C61.5978 76.3735 61.6616 76.9222 61.6616 76.9222C71.7043 86.2631 87.4895 92.1714 105.559 92.1714C133.824 92.1714 151 77.5156 151 55.7967C151 23.8372 112.52 23.6585 105.776 0H77.9444L57.3995 37.1595C60.6216 37.3062 62.3826 40.1838 62.3826 40.1838C62.3826 40.1838 65.0241 44.6692 66.3001 51.0496C67.5762 57.43 68.0867 60.0269 69.1713 60.6139L63.5438 72.0667L61.4957 75.3973ZM120.84 66.8922C120.84 66.8922 120.61 67.1091 120.17 67.4537C117.273 69.8144 113.407 71.5052 108.819 72.3921C108.5 72.4559 108.168 72.5069 107.837 72.5644C107.703 72.5899 107.562 72.609 107.428 72.6282C107.084 72.6792 106.739 72.7303 106.382 72.7749C105.897 72.8323 105.412 72.8898 104.914 72.928C104.908 72.928 104.895 72.928 104.889 72.928C104.876 72.928 104.857 72.928 104.844 72.928C103.6 73.0365 102.318 73.0939 100.997 73.0939C93.1999 73.0939 85.7987 71.1926 79.75 68.0088C79.6607 67.9641 79.565 67.9194 79.4757 67.8748C76.5471 66.4264 74.1353 64.5123 72.4381 62.9363C72.3232 62.8279 72.2084 62.7194 72.0935 62.6109C71.7362 62.2664 71.4108 61.941 71.1237 61.6475C71.0153 61.5326 70.9068 61.4242 70.8047 61.3093C70.0773 60.5309 69.8094 59.9694 69.8094 59.9694L91.4262 20.1238C92.1025 21.1128 92.8235 22.0571 93.5828 22.9631C97.4365 27.3719 103.453 31.7744 109.183 35.7367C111.824 37.4849 114.389 39.1629 116.686 40.8856C124.962 46.6663 125.472 51.6877 125.472 51.6877C125.491 51.7642 125.504 51.8344 125.517 51.911C125.817 53.0212 125.989 54.1952 125.989 55.4457C125.989 55.8796 125.963 56.3071 125.931 56.7282C125.536 63.5425 120.84 66.8922 120.84 66.8922Z" fill="#4D716A"/>
<path d="M62.1529 74.6571L58.7074 78.8044L38.5453 66.1967L40.0575 64.4485C40.0575 64.4485 47.3631 70.7778 50.5341 71.6264C53.7052 72.475 60.679 73.6746 60.679 73.6746L61.5084 74.0191L62.1529 74.6571Z" fill="#4D716A"/>
<path d="M55.8299 39.1629L53.2203 45.3136L57.6866 48.5038C57.6866 48.5038 60.3982 48.5804 59.9197 47.7063C59.4412 46.8258 56.7359 44.0312 55.8299 39.1629Z" fill="#4D716A"/>
<path opacity="0.29" d="M37.3648 30.8046C37.3648 30.8046 38.2389 21.2914 48.6964 22.6696C59.1603 24.0477 57.6928 12.563 57.6928 12.563C57.6928 12.563 58.1139 7.1907 64.6538 7.96911C64.6538 7.96911 60.7043 12.1036 62.0761 14.86C63.4479 17.6163 63.9583 24.5135 58.7009 26.115C52.2758 28.0674 53.9539 38.1293 60.5065 39.1629L35.2146 31.7042" fill="#D1D1D1"/>
<path d="M32.6626 31.7042L24.5084 58.5083C24.5084 58.5083 29.9062 65.7883 44.1792 66.4008L56.7103 37.2296" fill="#8FD3FD"/>
<path d="M32.6626 31.7042L24.5084 58.5083C24.5084 58.5083 29.9062 65.7883 44.1792 66.4008L56.7103 37.2296" stroke="#8FD3FD" stroke-width="1.0386" stroke-miterlimit="10"/>
<path d="M56.5813 37.8855C57.1649 35.9157 52.2917 32.7348 45.6967 30.7806C39.1016 28.8264 33.2821 28.839 32.6985 30.8088C32.1148 32.7785 36.988 35.9595 43.5831 37.9136C50.1782 39.8678 55.9977 39.8552 56.5813 37.8855Z" fill="#7B7B7B" stroke="#8FD3FD" stroke-width="1.0263" stroke-miterlimit="10"/>
<path d="M69.0499 60.8244L67.9461 58.6423C67.9461 58.6423 67.3017 56.8367 66.2553 51.2028C65.2089 45.5689 63.0396 37.8933 58.082 37.3573C53.1181 36.8213 59.0072 47.0236 59.7154 47.802C60.43 48.5804 58.2671 49.7098 56.0977 47.5277C54.324 45.7475 48.6454 41.1728 43.1327 38.7674C40.9187 37.8039 38.8706 40.2732 40.3636 42.1171C40.9825 42.8827 41.8247 43.7696 42.9477 44.7905C43.1072 44.9308 43.2667 45.0776 43.439 45.2307C43.439 45.2307 35.7953 36.7193 33.3707 39.8776C30.9525 43.0359 31.6352 43.7632 36.6056 48.5868C36.6056 48.5868 32.4966 43.5272 31.5714 47.751C31.4757 48.1976 31.5395 48.6634 31.7437 49.0845C32.2605 50.1628 33.5749 52.4916 36.3567 55.3245C40.2105 59.2549 40.2105 59.2549 40.2105 59.2549C40.2105 59.2549 36.7459 54.3611 34.8829 56.339C34.1555 57.111 34.2257 58.3106 34.9211 59.1209C37.0331 61.5837 42.8648 67.8875 49.8513 71.2181C49.9661 71.2692 50.081 71.3138 50.2022 71.3521C51.306 71.6903 58.4967 73.3811 61.202 73.7065C61.202 73.7065 61.8847 74.638 61.8401 74.3445L69.0499 60.8244Z" fill="#F6F6F6" stroke="#1B1B1B" stroke-width="1.1735" stroke-miterlimit="10" stroke-linecap="round"/>
<path d="M45.0915 64.3272L40.2105 59.2484" stroke="#1B1B1B" stroke-width="1.1735" stroke-miterlimit="10" stroke-linecap="round"/>
<path d="M47.7267 59.8291L36.6121 48.5804" stroke="#1B1B1B" stroke-width="1.1735" stroke-miterlimit="10" stroke-linecap="round"/>
<path d="M53.0224 55.1076L42.9541 44.7905" stroke="#1B1B1B" stroke-width="1.1735" stroke-miterlimit="10" stroke-linecap="round"/>
<path d="M46.3486 37.0127L44.3068 36.3109C43.8921 36.1705 43.4455 36.3874 43.3051 36.8022L33.4793 65.3098C33.3389 65.7246 33.5559 66.1712 33.9706 66.3115L36.0123 67.0134C36.5036 67.1857 37.0396 66.9241 37.2118 66.4328L46.942 38.2122C47.1015 37.721 46.8399 37.185 46.3486 37.0127Z" fill="#8FD3FD" stroke="#8FD3FD" stroke-miterlimit="10"/>
</svg>
