<svg width="150" height="106" viewBox="0 0 150 106" fill="none" xmlns="http://www.w3.org/2000/svg">
<path d="M138.25 56.6994C137.025 57.124 135.801 57.5486 134.571 57.9732C133.648 58.2942 132.676 58.5707 131.856 59.1187C130.548 59.9975 130.222 61.5972 131.471 62.7031C132.967 64.0263 135.297 63.8881 137.094 63.3943C139.287 62.792 141.291 61.5725 143.212 60.3925C144.816 59.405 146.421 58.2942 147.551 56.7636C148.559 55.4059 149.442 53.2137 148.391 51.6437C147.418 50.1872 145.389 49.9453 143.794 50.1477C141.701 50.4143 139.815 51.461 138.294 52.8928C137.628 53.5199 136.645 54.5665 135.628 54.4629C134.236 54.3197 134.492 52.6015 134.7 51.6634C135.174 49.5108 135.337 47.3038 134.715 45.1611C134.186 43.3294 133.095 41.6704 131.545 40.5447C130.192 39.5622 128.42 38.9401 126.771 39.4882C125.442 39.9276 124.47 41.1915 125.151 42.5838C125.502 43.2948 126.168 43.8033 126.766 44.2921C127.551 44.934 128.262 45.6005 128.592 46.5929C129.259 48.5875 128.484 50.8587 127.536 52.6311C126.514 54.5369 125.201 56.2995 123.709 57.8597C121.488 60.1901 118.674 62.4217 115.583 63.4635C112.309 64.5645 108.764 65.1816 105.308 64.8953C104.197 64.8015 103.106 64.599 102.04 64.2781C101.778 64.1991 101.67 64.604 101.926 64.683C105.481 65.7494 109.317 65.4828 112.897 64.6534C113.998 64.3966 115.089 64.0905 116.151 63.7054C117.232 63.3154 118.239 62.7081 119.207 62.0959C122.49 60.0123 125.294 57.1685 127.319 53.8457C129.007 51.071 130.474 47.0076 127.62 44.4649C126.583 43.5417 124.248 41.9914 125.862 40.4657C127.24 39.1574 129.452 39.7202 130.878 40.604C132.631 41.6951 133.836 43.5022 134.364 45.482C134.65 46.5682 134.744 47.6988 134.695 48.8196C134.646 49.9255 134.379 50.9722 134.191 52.0584C133.974 53.3224 134.29 55.1146 135.984 54.8727C136.778 54.7591 137.47 54.2061 138.052 53.6927C138.827 53.0162 139.543 52.3152 140.432 51.7819C142.16 50.7501 144.426 50.1181 146.406 50.75C147.492 51.1006 148.346 51.8955 148.42 53.0854C148.48 54.0926 148.09 55.1245 147.576 55.9737C146.569 57.6375 144.925 58.8225 143.305 59.8395C141.444 61.0097 139.494 62.2045 137.391 62.871C135.589 63.4437 132.532 63.8288 131.323 61.9181C129.945 59.7408 133.648 58.7435 135.006 58.2695C136.122 57.8844 137.233 57.4993 138.348 57.1092C138.615 57.0154 138.506 56.6106 138.25 56.6994Z" fill="#1B1B1B"/>
<path d="M147.043 57.3216C147.709 56.6649 148.85 57.0402 149.304 57.7709C149.877 58.6843 149.511 59.8939 149.042 60.7678C148.104 62.5106 146.539 63.8338 145.033 65.0681C143.429 66.3864 141.73 67.6898 139.76 68.4156C138.758 68.7809 137.697 69.0031 136.63 68.9883C135.697 68.9784 134.147 68.8303 133.554 68.0058C132.636 66.732 134.211 64.4016 135.248 63.7104C135.47 63.5623 135.263 63.1969 135.035 63.35C133.855 64.1399 132.75 65.9075 132.898 67.3936C133.006 68.4748 133.925 68.9241 134.877 69.1809C136.097 69.5067 137.395 69.4722 138.62 69.1957C141.148 68.6328 143.276 67.048 145.246 65.4384C147.068 63.9474 149.334 62.1255 149.902 59.7162C150.134 58.7386 149.985 57.6376 149.131 57.0056C148.411 56.4724 147.403 56.3687 146.737 57.0303C146.554 57.213 146.855 57.5092 147.043 57.3216Z" fill="#1B1B1B"/>
<path d="M148.934 61.2862C149.161 61.5282 149.324 61.6417 149.344 61.9774C149.378 62.5502 149.353 63.0982 149.215 63.6611C148.958 64.688 148.43 65.6261 147.808 66.4753C146.465 68.307 144.658 69.9116 142.752 71.141C141.745 71.7878 140.679 72.3309 139.558 72.7505C138.462 73.1653 137.075 73.7084 135.89 73.4961C134.522 73.2541 134.28 72.0198 134.769 70.8744C135.06 70.1832 135.603 69.6697 136.28 69.3586C136.526 69.2451 136.309 68.8847 136.067 68.9982C134.902 69.5413 134.023 70.8151 134.083 72.1383C134.122 72.9233 134.64 73.5207 135.356 73.7923C136.334 74.1626 137.44 73.8565 138.398 73.58C140.531 72.9628 142.52 71.9309 144.278 70.5732C145.927 69.3043 147.522 67.7837 148.628 66.0112C149.205 65.083 149.65 64.0511 149.758 62.955C149.798 62.5452 149.867 61.8935 149.684 61.5084C149.59 61.3159 149.373 61.148 149.225 60.99C149.047 60.7876 148.751 61.0838 148.934 61.2862Z" fill="#1B1B1B"/>
<path d="M147.127 67.3738C146.213 69.7239 144.55 71.7433 142.451 73.1405C141.444 73.812 140.338 74.3403 139.173 74.6859C138.6 74.8587 137.968 75.0364 137.371 75.0562C136.611 75.0759 136.028 74.6019 136.551 73.8613C136.709 73.6392 136.344 73.4318 136.191 73.649C135.426 74.7303 136.428 75.5548 137.524 75.4659C138.966 75.3474 140.437 74.7698 141.701 74.0835C144.347 72.6418 146.441 70.2917 147.532 67.4873C147.63 67.2355 147.221 67.1269 147.127 67.3738Z" fill="#1B1B1B"/>
<path d="M149.003 64.4165C148.228 68.0947 146.036 71.4372 142.906 73.5356C139.607 75.7475 135.608 76.4387 131.703 76.5325C129.743 76.5769 127.778 76.4831 125.823 76.3498C123.611 76.1967 121.384 76.0585 119.192 75.7178C117.128 75.3969 115.055 74.839 113.05 74.2613C111.722 73.8812 110.399 73.4664 109.115 72.9431C108.226 72.5827 106.883 72.1186 106.36 71.2397C106.222 71.0077 105.861 71.22 106 71.452C106.449 72.2074 107.402 72.637 108.162 72.9875C109.327 73.5208 110.542 73.9355 111.761 74.3157C113.702 74.918 115.701 75.4611 117.691 75.8709C119.933 76.33 122.218 76.4979 124.495 76.6707C126.583 76.8287 128.676 76.9669 130.775 76.962C134.72 76.9521 138.798 76.4239 142.269 74.4243C145.922 72.3161 148.544 68.6526 149.408 64.53C149.462 64.2634 149.057 64.1548 149.003 64.4165Z" fill="#1B1B1B"/>
<path d="M116.654 62.4365V77.1939H111.608C90.2449 77.1939 78.6324 67.0825 78.6324 50.4143C78.6324 43.038 81.3232 35.1137 86.7098 27.0512L55.7532 23.7729L43.3064 77.1939H24.7966L38.4235 20.4945C34.049 18.3073 31.5261 14.3477 31.5261 10.1115C31.5261 4.09792 36.572 0 44.3136 0C52.0503 0 57.1011 3.96461 57.6047 9.42521L113.46 14.6192V18.3073C103.536 29.7864 97.9815 40.0312 97.9815 48.6369C97.9815 57.3807 103.704 62.4365 113.292 62.4365H116.654Z" fill="#DA7584"/>
<path d="M26.2332 77.1989C23.6017 79.159 19.9777 79.8009 16.7833 80.0872C13.3766 80.3933 9.41201 79.6675 6.50891 81.9041C5.872 82.3929 5.32397 83.0199 5.01292 83.7655C4.91417 83.9975 4.70187 84.4122 4.9043 84.6542C5.02279 84.7924 5.20053 84.7973 5.33878 84.6887C5.41777 84.6295 5.45727 84.5505 5.43752 84.4517C5.43258 84.432 5.42765 84.4122 5.42271 84.3925C5.35853 84.1308 4.95367 84.2394 5.01786 84.506C5.02279 84.5258 5.02773 84.5455 5.03267 84.5653C5.06723 84.4863 5.09685 84.4073 5.13141 84.3283C5.37334 84.1456 5.40296 83.8889 5.54614 83.6223C5.67451 83.3853 5.8325 83.1582 6.00531 82.9558C6.34598 82.5558 6.75083 82.2201 7.19518 81.9387C8.07895 81.3758 9.08122 81.0549 10.1082 80.8772C12.1966 80.5118 14.3344 80.7093 16.4377 80.5414C19.8099 80.2748 23.6659 79.633 26.4455 77.5643C26.6578 77.4013 26.4505 77.0409 26.2332 77.1989Z" fill="#1B1B1B"/>
<path d="M5.45731 84.5406C6.48426 84.1901 7.54577 83.9827 8.62703 83.9235C9.59966 83.8692 10.5723 83.9136 11.5449 83.9284C11.8165 83.9334 11.8165 83.5137 11.5449 83.5088C10.5377 83.489 9.53054 83.4446 8.52828 83.5088C7.44209 83.5779 6.37564 83.7852 5.34375 84.1358C5.09195 84.2246 5.20057 84.6295 5.45731 84.5406Z" fill="#1B1B1B"/>
<path d="M5.22033 84.3727C4.11438 84.7825 3.20099 85.6169 2.82082 86.7525C2.65789 87.2314 2.54434 87.9177 2.73689 88.4065C2.92944 88.8953 3.4281 88.8508 3.86258 88.7619C5.64987 88.3966 7.40753 88.0164 9.22937 87.8387C10.992 87.6659 12.7644 87.6264 14.532 87.7004C14.8035 87.7103 14.8035 87.2906 14.532 87.2808C11.8264 87.1721 9.11088 87.3351 6.43983 87.7942C5.78811 87.9078 5.14133 88.0362 4.49949 88.1793C4.23288 88.2386 3.74409 88.4558 3.4676 88.4065C2.964 88.3225 3.05287 87.6362 3.10718 87.3153C3.30961 86.1254 4.223 85.1874 5.32895 84.7776C5.58075 84.6838 5.47213 84.274 5.22033 84.3727Z" fill="#1B1B1B"/>
<path d="M3.35404 88.5052C2.00617 89.1964 0.544743 90.4455 0.0905161 91.9464C-0.413084 93.6054 1.28533 94.4595 2.69739 94.2916C3.7194 94.1682 4.71672 93.8325 5.72392 93.6251C6.76075 93.4128 7.8025 93.24 8.84427 93.0869C11.0364 92.771 13.2434 92.5537 15.4404 92.2822C15.707 92.2476 15.707 91.828 15.4404 91.8625C12.0387 92.2822 8.61715 92.5735 5.25982 93.2943C4.39086 93.4819 3.52191 93.7782 2.63814 93.8769C1.68525 93.9855 0.371939 93.6399 0.431186 92.4402C0.470684 91.6255 1.15203 90.8158 1.68525 90.253C2.22835 89.6852 2.86525 89.226 3.5614 88.8705C3.80827 88.7471 3.59597 88.3817 3.35404 88.5052Z" fill="#1B1B1B"/>
<path d="M2.91468 93.877C2.20865 94.736 1.48781 95.6741 1.40882 96.8294C1.34957 97.7428 1.74949 98.6513 2.58882 99.0759C3.41828 99.4956 4.42054 99.3721 5.2895 99.1598C6.61268 98.8389 7.89637 98.3205 9.18499 97.886C11.9597 96.9529 14.7345 95.8272 17.5833 95.1458C20.121 94.5386 23.2167 94.7163 24.6583 97.2392C25.3545 98.4538 25.0829 99.6289 24.5497 100.838C24.1498 101.742 23.6857 102.715 23.9523 103.727C24.4806 105.741 26.969 106.052 28.544 105.168C30.7657 103.924 31.6594 101.12 32.6666 98.9525C33.2788 97.6391 33.8515 96.3061 34.5723 95.0471C35.2339 93.8967 36.0486 92.8549 36.9126 91.8527C38.6456 89.8333 40.5711 87.8979 41.6178 85.4046C42.7139 82.7978 42.8274 79.8502 41.9881 77.1545C41.9091 76.8978 41.5042 77.0064 41.5832 77.268C42.3238 79.628 42.3041 82.1707 41.5092 84.5159C40.739 86.792 39.1837 88.6287 37.6186 90.4061C36.0634 92.1736 34.6118 93.9313 33.5602 96.0543C32.9776 97.2294 32.4444 98.4291 31.8865 99.619C31.3681 100.735 30.8941 101.89 30.2226 102.927C29.5413 103.979 28.5588 104.931 27.2948 105.198C26.1494 105.435 24.7423 104.887 24.372 103.697C24.0362 102.616 24.7225 101.525 25.1175 100.562C25.4779 99.6832 25.6507 98.7796 25.3693 97.8514C24.8509 96.1234 23.1574 94.8644 21.4294 94.5287C18.9311 94.0448 16.4378 94.9928 14.1074 95.7778C11.2784 96.7307 8.45921 97.8021 5.5956 98.6365C4.53903 98.9475 3.03811 99.2388 2.23334 98.2612C1.13727 96.9331 2.33702 95.2298 3.20598 94.1683C3.37878 93.9658 3.08255 93.6647 2.91468 93.877Z" fill="#1B1B1B"/>
</svg>
