<svg width="135" height="151" viewBox="0 0 135 151" fill="none" xmlns="http://www.w3.org/2000/svg">
<path d="M60.5175 81.9505C60.5175 81.9505 72.6889 71.0261 77.271 48.873L100.468 49.6069C100.468 49.6069 97.9803 65.2567 90.7132 76.1751C90.4746 76.5331 90.2538 76.8911 90.0629 77.2729C89.0546 79.2776 84.7648 87.0935 75.2663 95.7686C64.2405 105.84 48.6325 115.619 43.764 117.2C38.8954 118.781 37.0876 119.485 37.0876 119.485L25.7575 105.619C25.7575 105.619 30.5604 104.145 35.0352 101.413C38.1258 99.5274 40.9896 97.7614 42.4693 96.8485C43.1673 96.419 43.8356 95.9357 44.462 95.4106L60.5175 81.9505Z" fill="#8FD3FD"/>
<path d="M26.2944 47.4888L49.408 46.7609C49.408 46.7609 50.6371 61.2293 54.4317 70.3221C58.2263 79.4148 60.231 81.4493 60.231 81.4493C60.231 81.4493 68.7092 96.6039 89.7406 102.081C89.7406 102.081 104.191 103.74 103.779 104.503C94.9612 120.827 94.9612 120.827 94.9612 120.827C94.9612 120.827 77.5215 122.719 58.0831 109.3C38.6447 95.882 27.3683 74.0331 26.2944 47.4888Z" fill="#8FD3FD"/>
<path d="M49.5335 47.984C49.5335 47.984 48.3163 34.7327 52.3019 25.9264C56.2874 17.1201 65.0639 17.8718 65.0639 17.8718C65.0639 17.8718 76.1852 18.194 77.5873 35.4845C77.5873 35.4845 78.5001 42.3041 77.1577 49.3384L100.373 50.1975C100.403 50.0365 102.449 41.3136 100.224 29.2019C99.0483 22.8 96.4171 16.7203 92.3182 11.6668C90.5641 9.50699 88.4341 7.56792 86.1967 6.15986C78.5658 1.36291 73.912 -0.110783 65.4636 0.0264434C65.231 0.0324098 64.9863 0.0264444 64.7536 0.020478C62.4864 -0.0749837 48.4655 -0.236075 38.2093 9.70388C38.2093 9.70388 24.5822 21.1235 26.3005 48.4733L49.5335 47.984Z" fill="#8FD3FD"/>
<path d="M27.1239 56.8441C27.1239 56.8441 24.7731 46.7073 27.3208 31.4095L50.3867 32.03C50.3867 32.03 47.6541 48.0259 50.7864 56.8441H27.1239Z" fill="#8FD3FD"/>
<path d="M108.505 137.569C108.505 137.569 110.826 136.483 119.447 125.159C128.194 113.68 130.956 107.97 130.598 101.001C130.24 94.0324 128.2 93.0658 128.2 93.0658" stroke="#1B1B1B" stroke-width="1.1956" stroke-miterlimit="10"/>
<path d="M108.666 104.169C105.713 105.577 95.2297 109.992 90.7967 103.996C90.7847 103.978 90.7728 103.96 90.7608 103.943C90.5162 103.537 87.9388 99.0621 92.0615 98.5848C92.1033 98.5788 92.145 98.5848 92.1868 98.6027C92.7178 98.8294 96.5423 100.428 102.89 102.171C104.573 102.63 106.428 103.101 108.451 103.561C108.732 103.62 108.887 104.062 108.666 104.169Z" fill="#1B1B1B" stroke="#1B1B1B" stroke-width="1.1956" stroke-miterlimit="10"/>
<path d="M119.214 98.6324L121.482 102.284C121.762 102.737 121.625 103.334 121.171 103.614L120.784 103.853C120.33 104.133 119.734 103.996 119.453 103.543L117.168 99.8615C117.126 99.7899 117.144 99.7004 117.216 99.6527L118.958 98.5668C119.047 98.5191 119.161 98.5429 119.214 98.6324Z" stroke="#1B1B1B" stroke-width="0.8077" stroke-miterlimit="10"/>
<path d="M116.416 100.631L119.036 105.279C119.322 105.792 119.143 106.436 118.63 106.723L118.397 106.854C117.884 107.14 117.24 106.961 116.953 106.448L114.316 101.771C114.274 101.693 114.298 101.592 114.376 101.544L116.136 100.554C116.237 100.5 116.363 100.536 116.416 100.631Z" stroke="#1B1B1B" stroke-width="0.8887" stroke-miterlimit="10"/>
<path d="M113.063 102.069L116.47 108.107C116.792 108.68 116.589 109.408 116.017 109.73C115.444 110.052 114.716 109.849 114.394 109.276L110.969 103.203C110.921 103.113 110.951 103 111.041 102.952L112.759 101.98C112.86 101.92 113.004 101.962 113.063 102.069Z" stroke="#1B1B1B" stroke-miterlimit="10"/>
<path d="M97.9922 121.931C97.9922 121.931 102.879 133.47 109.519 138.434C109.519 138.434 111.697 142.05 114.615 138.219C115.814 136.644 126.273 122.916 129.787 115.511C131.911 111.042 133.844 106.46 133.916 101.514C133.94 99.9331 133.82 98.3401 133.462 96.8903C132.728 93.931 129.602 92.2902 126.768 93.4119C124.811 94.1875 122.174 95.5777 118.904 98.0895C111.154 104.05 104.794 104.068 104.794 104.068" stroke="#1B1B1B" stroke-miterlimit="10"/>
<path d="M95.4147 120.434C95.4147 120.434 94.9314 123.876 97.9921 121.931L107.156 103.793C107.156 103.793 107.156 103.793 104.179 104.408L95.4147 120.434Z" stroke="#1B1B1B" stroke-miterlimit="10"/>
<path d="M4.64252 111.854C4.64252 111.854 4.80958 114.408 12.1959 126.573C19.6837 138.905 23.9854 143.565 30.6141 145.779C37.2367 147.992 38.8775 146.447 38.8775 146.447" stroke="#1B1B1B" stroke-width="1.1956" stroke-miterlimit="10"/>
<path d="M35.6675 124.21C35.4348 120.947 35.1544 109.575 42.3558 107.642C42.3797 107.636 42.3976 107.63 42.4214 107.63C42.8928 107.552 48 106.788 46.938 110.798C46.926 110.84 46.9081 110.875 46.8723 110.911C46.4666 111.323 43.5849 114.294 39.6411 119.574C38.597 120.97 37.4813 122.528 36.3178 124.246C36.1568 124.473 35.6854 124.455 35.6675 124.21Z" fill="#1B1B1B" stroke="#1B1B1B" stroke-width="1.1956" stroke-miterlimit="10"/>
<path d="M36.9683 136.053L32.7381 136.829C32.2131 136.925 31.7119 136.578 31.6164 136.053L31.5329 135.606C31.4375 135.081 31.7835 134.58 32.3085 134.484L36.5685 133.703C36.6521 133.685 36.7296 133.744 36.7415 133.822L37.1115 135.845C37.1353 135.94 37.0697 136.036 36.9683 136.053Z" stroke="#1B1B1B" stroke-width="0.8077" stroke-miterlimit="10"/>
<path d="M36.1271 132.712L30.8468 133.452C30.2681 133.536 29.7311 133.13 29.6476 132.551L29.6118 132.289C29.5283 131.71 29.934 131.173 30.5127 131.089L35.8347 130.344C35.9242 130.332 36.0077 130.391 36.0197 130.481L36.3001 132.48C36.318 132.599 36.2404 132.7 36.1271 132.712Z" stroke="#1B1B1B" stroke-width="0.8887" stroke-miterlimit="10"/>
<path d="M36.0136 129.067L29.1464 130.033C28.496 130.123 27.8874 129.669 27.7979 129.019C27.7085 128.369 28.1619 127.76 28.8122 127.671L35.7213 126.698C35.8227 126.686 35.9182 126.752 35.9301 126.853L36.2046 128.81C36.2284 128.936 36.1389 129.049 36.0136 129.067Z" stroke="#1B1B1B" stroke-miterlimit="10"/>
<path d="M23.0309 107.785C23.0309 107.785 10.5075 108.119 3.46122 112.486C3.46122 112.486 -0.697327 113.196 1.79661 117.307C2.82282 118.996 11.7843 133.75 17.3927 139.729C20.7816 143.338 24.3375 146.811 28.9137 148.69C30.3755 149.293 31.9028 149.758 33.3825 149.955C36.4074 150.355 39.0744 148.04 39.0684 144.991C39.0625 142.885 38.7284 139.92 37.5888 135.964C34.8741 126.573 37.1831 120.648 37.1831 120.648" stroke="#1B1B1B" stroke-miterlimit="10"/>
<path d="M25.3697 105.929C25.3697 105.929 22.3388 104.217 23.0309 107.785L36.5626 122.945C36.5626 122.945 36.5626 122.945 37.0817 119.95L25.3697 105.929Z" stroke="#1B1B1B" stroke-miterlimit="10"/>
</svg>
