<svg width="17" height="11" viewBox="0 0 17 11" fill="none" xmlns="http://www.w3.org/2000/svg">
<path d="M8.62354 10.4521C3.87079 10.4521 0.481921 6.56293 0.481921 5.34794C0.481921 4.12699 3.87674 0.243796 8.62354 0.243796C13.4299 0.243796 16.7592 4.12699 16.7592 5.34794C16.7592 6.56293 13.4358 10.4521 8.62354 10.4521ZM8.62354 9.51106C12.5306 9.51106 15.7169 6.18771 15.7169 5.34794C15.7169 4.6392 12.5306 1.18482 8.62354 1.18482C4.69865 1.18482 1.52419 4.6392 1.52419 5.34794C1.52419 6.18771 4.69865 9.51106 8.62354 9.51106ZM8.62354 8.6832C6.75936 8.6832 5.27041 7.16447 5.27041 5.34794C5.27041 3.48377 6.75936 2.01268 8.62354 2.01268C10.4758 2.01268 11.9648 3.48377 11.9648 5.34794C11.9648 7.16447 10.4758 8.6832 8.62354 8.6832ZM8.62354 6.45572C9.23699 6.45572 9.73727 5.95543 9.73727 5.34794C9.73727 4.73449 9.23699 4.24016 8.62354 4.24016C8.00413 4.24016 7.50384 4.73449 7.50384 5.34794C7.50384 5.95543 8.00413 6.45572 8.62354 6.45572Z" fill="#1B1B1B"/>
</svg>
