<?xml version="1.0" encoding="utf-8"?>
<!-- Generator: Adobe Illustrator 25.2.1, SVG Export Plug-In . SVG Version: 6.00 Build 0)  -->
<svg version="1.1" id="Camada_1" xmlns="http://www.w3.org/2000/svg" xmlns:xlink="http://www.w3.org/1999/xlink" x="0px" y="0px"
	 viewBox="0 0 17 11" style="enable-background:new 0 0 17 11;" xml:space="preserve">
<style type="text/css">
	.st0{fill:#1B1B1B;}
</style>
<path class="st0" d="M14.8,8.1c1.2-1,1.9-2.2,1.9-2.7c0-1.2-3.3-5.1-8.1-5.1c-4.7,0-8.1,3.9-8.1,5.1C0.5,5.9,1.2,7,2.4,8L0.7,9.7
	c-0.2,0.2-0.2,0.5,0,0.7c0.1,0.1,0.2,0.1,0.4,0.1s0.3,0,0.4-0.1l1.8-1.8c1.3,0.9,3,1.6,4.9,1.8v1.3c0,0.3,0.2,0.5,0.5,0.5
	s0.5-0.2,0.5-0.5v-1.3c2-0.1,3.6-0.8,4.9-1.7l1.7,1.7c0.1,0.1,0.2,0.1,0.4,0.1s0.3,0,0.4-0.1c0.2-0.2,0.2-0.5,0-0.7L14.8,8.1z
	 M1.5,5.3c0-0.7,3.2-4.2,7.1-4.2c3.9,0,7.1,3.5,7.1,4.2c0,0.8-3.2,4.2-7.1,4.2C4.7,9.5,1.5,6.2,1.5,5.3z"/>
</svg>
